<svg width="37" height="33" viewBox="0 0 37 33" fill="none" xmlns="http://www.w3.org/2000/svg">
<path d="M16.4125 33C7.34241 33 0 25.6184 0 16.5C0 7.38158 7.34241 0 16.4125 0C21.0195 0 25.4825 2.02632 28.5058 5.35526C28.7938 5.64474 28.7938 6.07895 28.5058 6.36842C28.2179 6.6579 27.786 6.6579 27.4981 6.36842C22.0272 0.289474 12.5253 -0.144737 6.33463 5.35526C0.143969 10.8553 -0.287938 20.5526 5.32685 26.6316C10.9416 32.7105 20.4436 33.2895 26.4903 27.6447C29.6576 24.75 31.3852 20.6974 31.3852 16.5C31.3852 14.9079 31.0973 13.3158 30.6654 11.8684C30.5214 11.4342 30.8093 11 31.0973 10.8553C31.5292 10.7105 31.9611 11 32.1051 11.2895C32.537 12.8816 32.8249 14.6184 32.8249 16.3553C32.8249 25.6184 25.4825 33 16.4125 33Z" fill="white"/>
<path d="M16.4125 23.1581C16.2686 23.1581 15.9806 23.1581 15.8367 23.0134L7.48646 14.6186C7.19852 14.3292 7.19852 13.8949 7.48646 13.6055C7.7744 13.316 8.20631 13.316 8.49424 13.6055L16.2686 21.4213L35.8483 1.44757C36.1363 1.1581 36.5682 1.1581 36.8561 1.44757C37.144 1.73705 37.144 2.17126 36.8561 2.46073L16.9884 23.0134C16.8444 23.1581 16.7005 23.1581 16.4125 23.1581Z" fill="white"/>
</svg>
