<svg width="14" height="16" viewBox="0 0 14 16" fill="none" xmlns="http://www.w3.org/2000/svg">
<path d="M2.23314 4.19824H11.1665C11.1737 4.19824 11.1836 4.1997 11.1945 4.20384C11.2055 4.20798 11.2139 4.21348 11.2194 4.2183C11.2225 4.22102 11.2241 4.22302 11.2247 4.224C11.2248 4.22452 11.2248 4.22533 11.2248 4.22649V15.2986C11.2213 15.3039 11.2155 15.3114 11.2067 15.3197C11.1938 15.3319 11.1802 15.3405 11.1696 15.3452C11.166 15.3467 11.1636 15.3475 11.1621 15.348H2.23314C2.21604 15.348 2.20576 15.3448 2.19996 15.3423C2.19366 15.3396 2.18852 15.336 2.1843 15.3317C2.17981 15.3272 2.17695 15.3225 2.17547 15.319C2.17515 15.3182 2.17494 15.3176 2.1748 15.3172V4.22649C2.1748 4.21699 2.17558 4.21018 2.17634 4.20579C2.18473 4.20285 2.20284 4.19824 2.23314 4.19824Z" stroke="#6E6E6E"/>
<path d="M8.94853 2.22501L9.03768 2.61304H9.43583H12.8417C12.872 2.61304 12.8901 2.61765 12.8985 2.62059C12.8992 2.62499 12.9 2.63179 12.9 2.6413C12.9 2.65081 12.8992 2.65762 12.8985 2.66202C12.8901 2.66496 12.872 2.66957 12.8417 2.66957H8.93333H4.46666H0.558333C0.528035 2.66957 0.509921 2.66496 0.501537 2.66202C0.500775 2.65762 0.5 2.65081 0.5 2.6413C0.5 2.63179 0.500775 2.62499 0.501537 2.62059C0.509921 2.61765 0.528035 2.61304 0.558333 2.61304H3.96416H4.36231L4.45147 2.22501C4.67674 1.24458 5.58524 0.5 6.7 0.5C7.81475 0.5 8.72326 1.24458 8.94853 2.22501ZM4.66508 1.9469L4.43039 2.61304H5.13666H8.26333H8.96961L8.73492 1.9469C8.43593 1.09824 7.6219 0.556522 6.7 0.556522C5.77809 0.556522 4.96407 1.09824 4.66508 1.9469Z" stroke="#6E6E6E"/>
</svg>
