<svg width="27" height="24" viewBox="0 0 27 24" fill="none" xmlns="http://www.w3.org/2000/svg">
<path d="M12.9314 3.15278L13.5 3.81379L14.0686 3.15278C15.3434 1.67079 17.2094 0.75 19.26 0.75C23.14 0.75 26.25 3.87246 26.25 7.66908C26.25 12.1088 23.1171 15.7566 19.7877 18.3626C18.1415 19.6511 16.4911 20.6499 15.2501 21.3271C14.6305 21.6652 14.1153 21.9219 13.7567 22.0933C13.6591 22.1399 13.5732 22.1802 13.5 22.2141C13.4268 22.1802 13.3409 22.1399 13.2433 22.0933C12.8847 21.9219 12.3695 21.6652 11.7499 21.3271C10.5089 20.6499 8.85846 19.6511 7.21228 18.3626C3.88292 15.7566 0.75 12.1088 0.75 7.66908C0.75 3.87057 3.86187 0.75 7.71 0.75C9.79222 0.75 11.6577 1.67205 12.9314 3.15278Z" fill="#E93F5E" stroke="white" stroke-width="1.5"/>
</svg>
