<svg width="23" height="13" viewBox="0 0 23 13" fill="none" xmlns="http://www.w3.org/2000/svg">
<g clip-path="url(#clip0)">
<path d="M11.3442 12.9999C10.7925 12.9999 10.2889 12.7898 9.97711 12.6031C9.47346 12.2764 5.70808 9.21892 5.27638 8.86883L3.98128 7.79522C3.78941 7.63184 3.76543 7.32843 3.93331 7.14172C4.1012 6.955 4.41298 6.90832 4.60485 7.09504L5.89995 8.16865C7.96251 9.84908 10.193 11.6462 10.5287 11.8563C10.7686 11.9963 11.1763 12.1363 11.4881 12.0897C11.7519 12.0663 11.8478 11.9263 11.8958 11.8096C11.9437 11.6695 12.0876 11.5528 12.2315 11.5062C12.3994 11.4595 12.5433 11.5062 12.6632 11.6229C12.951 11.8796 13.3827 11.9029 13.6705 11.7862C13.8144 11.7396 14.0063 11.6229 14.0063 11.3895C14.0303 11.2028 14.1502 11.0627 14.3181 10.9927C14.486 10.9227 14.6778 10.9694 14.8217 11.0861C14.9656 11.2028 15.2774 11.2028 15.5412 11.0861C15.6851 11.016 15.925 10.8527 15.901 10.5726C15.877 10.3859 15.9729 10.2225 16.1408 10.1292C16.3087 10.0358 16.5006 10.0358 16.6685 10.1525C16.8124 10.2458 16.9802 10.1758 17.1002 10.0825C17.268 9.94244 17.4119 9.63902 17.2201 9.28893C16.6685 8.19199 13.7665 5.48462 11.9677 4.27098H11.9437C11.4401 4.4577 11.3681 4.4577 11.0084 4.50437C10.5287 5.18121 9.59338 6.32484 8.17836 5.88139C7.72268 5.74136 7.43488 5.41461 7.31496 4.94782C7.07513 3.94423 7.84259 2.52053 8.51413 1.89037C9.59338 0.86344 11.56 -0.023454 13.5986 0.86344C15.4453 1.63364 16.6205 1.96039 16.6205 1.96039C16.8843 2.03041 17.0282 2.28714 16.9563 2.54387C16.8843 2.8006 16.6205 2.94064 16.3567 2.87062C16.3087 2.84728 15.1335 2.52053 13.1909 1.65698C11.608 0.980137 10.0491 1.68032 9.18566 2.52053C8.65803 3.034 8.13039 4.13094 8.25031 4.69109C8.27429 4.83112 8.34624 4.90114 8.49014 4.94782C9.20964 5.18121 9.73728 4.66775 10.3608 3.75752C10.4328 3.64082 10.5767 3.5708 10.7206 3.54746L10.8885 3.52412C11.2003 3.50078 11.2003 3.50078 11.6559 3.33741L11.8958 3.24405C12.0397 3.19737 12.2076 3.22071 12.3275 3.29073C14.0543 4.41102 17.4119 7.39845 18.1075 8.82215C18.4432 9.49899 18.2993 10.2692 17.7477 10.736C17.4599 10.9694 17.1481 11.0861 16.8124 11.0861C16.6685 11.4362 16.4046 11.7162 16.0209 11.9029C15.6132 12.0897 15.1815 12.1363 14.7978 12.0663C14.6299 12.323 14.3661 12.5098 14.0543 12.6498C13.5506 12.8365 12.975 12.8132 12.5193 12.6031C12.3035 12.8365 11.9917 12.9765 11.632 12.9999C11.512 12.9999 11.4401 12.9999 11.3442 12.9999Z" fill="#3B1099"/>
<path d="M9.8092 1.93746C9.78522 1.93746 9.78522 1.93746 9.76123 1.93746C8.77792 1.8441 6.42755 1.77408 5.68407 1.79742C5.46822 1.82076 5.2044 1.61071 5.18042 1.35397C5.18042 1.09724 5.37229 0.887186 5.6361 0.863847C6.42755 0.840508 8.82588 0.910526 9.85717 1.02722C10.121 1.05056 10.3128 1.28395 10.2889 1.54069C10.2649 1.77408 10.049 1.93746 9.8092 1.93746Z" fill="#3B1099"/>
<path d="M17.7956 9.31247C17.6517 9.31247 17.5078 9.24245 17.4119 9.12575C17.244 8.9157 17.292 8.63562 17.5078 8.47225L18.4432 7.77207C18.659 7.6087 18.9468 7.65537 19.1147 7.86543C19.2826 8.07548 19.2346 8.35555 19.0188 8.51893L18.0834 9.21911C17.9875 9.28913 17.8915 9.31247 17.7956 9.31247Z" fill="#3B1099"/>
<path d="M16.3807 10.9462C16.2847 10.9462 16.1648 10.9229 16.0929 10.8529C15.5892 10.4795 12.951 8.0755 12.8311 7.98215C12.6393 7.79543 12.6393 7.51536 12.8071 7.32865C12.999 7.14193 13.2868 7.14193 13.4787 7.30531C14.2222 7.98215 16.2847 9.82595 16.6685 10.1294C16.8843 10.2927 16.9083 10.5728 16.7404 10.7829C16.6685 10.8996 16.5246 10.9462 16.3807 10.9462Z" fill="#3B1099"/>
<path d="M14.5099 11.8798C14.414 11.8798 14.2941 11.8565 14.1982 11.7865C13.5506 11.273 11.7279 9.68592 11.4401 9.38251C11.2722 9.1958 11.2722 8.89238 11.4641 8.72901C11.6559 8.5423 11.9677 8.56563 12.1356 8.75235C12.3514 8.98574 14.1502 10.5728 14.7977 11.0629C15.0136 11.2263 15.0376 11.5064 14.8697 11.7164C14.7738 11.8331 14.6299 11.8798 14.5099 11.8798Z" fill="#3B1099"/>
<path d="M12.3274 12.4165C12.2075 12.4165 12.1115 12.3698 12.0156 12.2998C11.392 11.7863 10.5286 10.9461 9.95303 10.3626C9.76116 10.1759 9.78514 9.87249 9.97701 9.70912C10.1689 9.54574 10.4807 9.54574 10.6485 9.73246C11.2002 10.3159 12.0396 11.1095 12.6152 11.5996C12.807 11.763 12.831 12.0664 12.6631 12.2531C12.5912 12.3465 12.4713 12.4165 12.3274 12.4165Z" fill="#3B1099"/>
<path d="M1.70282 9.40406C1.10323 9.40406 0.671533 9.35738 0.35975 9.28736C0.1439 9.24068 0 9.05397 0 8.82057C0.0239833 5.45971 0.935349 0.581794 0.983316 0.37174C1.03128 0.138347 1.27112 -0.0250281 1.51095 -0.00168883C1.63087 0.0216505 4.58081 0.465098 5.80396 0.885205C6.01981 0.955223 6.13973 1.14194 6.11575 1.37533C5.8999 3.80262 4.19708 8.79723 4.12513 9.00729C4.05318 9.194 3.90928 9.3107 3.71741 9.33404C3.69343 9.3107 2.66215 9.40406 1.70282 9.40406ZM0.959333 8.44714C1.48697 8.49382 2.75808 8.44714 3.33368 8.40047C3.69343 7.3502 4.84463 3.7326 5.13243 1.6554C4.1731 1.39867 2.61418 1.1186 1.84672 1.0019C1.63087 2.23889 1.05527 5.76312 0.959333 8.44714Z" fill="#3B1099"/>
<path d="M20.9614 9.17209C19.9301 9.17209 19.2346 9.10207 18.8509 8.9387C18.707 8.89202 18.611 8.77532 18.5631 8.63529C18.2033 7.35162 16.8363 3.64067 16.2607 2.73044C16.1887 2.61374 16.1647 2.4737 16.2127 2.35701C16.2607 2.21697 16.3566 2.12361 16.4765 2.07694C16.5485 2.0536 18.1793 1.33008 19.9301 1.33008C20.2899 1.33008 20.6496 1.35342 20.9854 1.42344C21.1053 1.44677 21.2012 1.51679 21.2732 1.61015C22.4244 3.17388 22.928 8.07514 22.976 8.63529C23 8.75198 22.952 8.89202 22.8561 8.98537C22.7601 9.07873 22.6402 9.14875 22.5203 9.14875C22.5443 9.12541 21.8008 9.17209 20.9614 9.17209ZM19.4265 8.12182C19.6663 8.1685 20.122 8.21518 20.9614 8.21518C21.3451 8.21518 21.7049 8.19184 21.9927 8.19184C21.8008 6.60476 21.3451 3.4773 20.6256 2.28699C20.4098 2.26365 20.1939 2.24031 19.9541 2.24031C18.9228 2.24031 17.9395 2.52038 17.3639 2.7071C18.0354 4.06078 19.0427 6.8615 19.4265 8.12182Z" fill="#3B1099"/>
</g>
<defs>
<clipPath id="clip0">
<rect width="23" height="13" fill="white"/>
</clipPath>
</defs>
</svg>
