<svg width="19" height="17" viewBox="0 0 19 17" fill="none" xmlns="http://www.w3.org/2000/svg">
<path d="M16.7623 10.0565C16.6606 10.0565 16.5792 10.1384 16.5792 10.2408V13.0878C16.5792 13.1493 16.5182 13.2107 16.4572 13.2107H2.56317C2.50214 13.2107 2.44111 13.1493 2.44111 13.0878V4.19867C2.44111 4.13722 2.50214 4.07578 2.56317 4.07578H10.4358C10.5375 4.07578 10.6188 3.99385 10.6188 3.89144V3.17457C10.6188 3.07216 10.5375 2.99023 10.4358 2.99023H2.44111C1.83083 2.99023 1.32227 3.50228 1.32227 4.11674V14.3577H17.6981V10.2408C17.6981 10.1384 17.6167 10.0565 17.515 10.0565H16.7623Z" fill="#3B1099"/>
<path d="M18.9593 15.0542C18.9797 15.0542 19 15.0747 19 15.0952C18.8373 16.1807 17.9218 17 16.8233 17H2.17666C1.0985 17 0.162741 16.1807 0 15.0952C0 15.0747 0.0203426 15.0542 0.0406852 15.0542H7.303C7.32334 15.0542 7.34368 15.0747 7.34368 15.0952C7.34368 15.3614 7.54711 15.5662 7.81156 15.5662H11.1884C11.4529 15.5662 11.6563 15.3614 11.6563 15.0952C11.6563 15.0747 11.6767 15.0542 11.697 15.0542H18.9593Z" fill="#3B1099"/>
<path d="M17.1081 0H12.2259C11.7784 0 11.3918 0.368675 11.3918 0.839759V8.5C11.3918 8.9506 11.758 9.33976 12.2259 9.33976H17.0878C17.5353 9.33976 17.9218 8.97108 17.9218 8.5V0.839759C17.9218 0.368675 17.5557 0 17.1081 0ZM14.5856 8.99157C14.3008 8.99157 14.0771 8.76626 14.0974 8.47952C14.0974 8.19277 14.3212 7.96747 14.606 7.98795C14.8908 7.98795 15.1145 8.21325 15.0942 8.5C15.0942 8.76626 14.8704 8.99157 14.5856 8.99157ZM17.1081 7.4759C17.1081 7.61928 16.9861 7.74217 16.8437 7.74217H12.4903C12.3479 7.74217 12.2259 7.61928 12.2259 7.4759V1.04458C12.2259 0.901205 12.3479 0.778313 12.4903 0.778313H16.8437C16.9861 0.778313 17.1081 0.901205 17.1081 1.04458V7.4759Z" fill="#3B1099"/>
</svg>
