<svg width="19" height="19" viewBox="0 0 19 19" fill="none" xmlns="http://www.w3.org/2000/svg">
<path d="M4.47859 18.9999H2.51074C1.83216 18.9999 1.28931 18.4628 1.28931 17.7914V11.8833C1.28931 11.2119 1.83216 10.6748 2.51074 10.6748H4.41074C5.08931 10.6748 5.63216 11.2119 5.63216 11.8833V17.7914C5.70002 18.4628 5.15716 18.9999 4.47859 18.9999ZM2.64645 17.6571H4.34288V11.9504H2.64645V17.6571Z" fill="#3B1099"/>
<path d="M10.5857 18.9999H8.68566C8.00709 18.9999 7.46423 18.4628 7.46423 17.7914V9.46629C7.46423 8.79492 8.00709 8.25781 8.68566 8.25781H10.5857C11.2642 8.25781 11.8071 8.79492 11.8071 9.46629V17.7242C11.8071 18.4628 11.2642 18.9999 10.5857 18.9999ZM8.75352 17.6571H10.4499V9.60057H8.75352V17.6571Z" fill="#3B1099"/>
<path d="M16.625 19.0001H14.725C14.0464 19.0001 13.5035 18.463 13.5035 17.7916V7.38524C13.5035 6.71386 14.0464 6.17676 14.725 6.17676H16.625C17.3035 6.17676 17.8464 6.71386 17.8464 7.38524V17.7245C17.9143 18.463 17.3714 19.0001 16.625 19.0001ZM14.8607 17.6573H16.5571V7.51951H14.8607V17.6573Z" fill="#3B1099"/>
<path d="M-3.03229e-05 8.3251C-0.0678875 7.98941 0.203541 7.58659 0.542827 7.58659H0.610684C12.35 5.70673 16.15 1.87987 16.4214 1.07422C16.4214 1.14136 16.4214 1.14136 16.4214 1.20849L17.9143 1.14136C17.9821 2.2827 13.9785 6.84807 0.814255 8.92934C0.542827 8.99648 0.135684 8.72793 -3.03229e-05 8.3251Z" fill="#3B1099"/>
<path d="M17.5071 3.28975L16.9643 1.54417L14.6571 1.947C14.25 2.01413 13.8429 1.81272 13.775 1.40989C13.7071 1.0742 13.9786 0.671378 14.3179 0.60424H14.3857L18.05 0L19 2.95406C19.0679 3.28975 18.8643 3.69258 18.525 3.75972C18.525 3.75972 18.525 3.75972 18.4571 3.75972C18.1179 3.89399 17.6429 3.69258 17.5071 3.28975Z" fill="#3B1099"/>
</svg>
