<?xml version="1.0" standalone="no"?>
<!DOCTYPE svg PUBLIC "-//W3C//DTD SVG 20010904//EN"
 "http://www.w3.org/TR/2001/REC-SVG-20010904/DTD/svg10.dtd">
<svg version="1.0" xmlns="http://www.w3.org/2000/svg"
 width="980.000000pt" height="930.000000pt" viewBox="0 0 980.000000 930.000000"
 preserveAspectRatio="xMidYMid meet">

<g transform="translate(0.000000,930.000000) scale(0.100000,-0.100000)"
fill="#fff" stroke="none">
<path d="M2595 9232 c-706 -374 -1336 -948 -1787 -1629 -549 -827 -831 -1815
-805 -2813 8 -269 25 -449 67 -707 33 -199 106 -501 165 -683 88 -272 251
-644 390 -890 285 -504 673 -972 1119 -1349 695 -587 1549 -971 2446 -1100
265 -39 381 -46 710 -46 331 0 447 8 715 46 1216 176 2319 807 3101 1774 598
740 955 1611 1060 2585 26 233 26 740 1 970 -111 1014 -481 1893 -1126 2670
-122 148 -453 479 -601 601 -278 231 -616 457 -887 593 l-73 36 -205 -409
-204 -410 97 -52 c354 -191 636 -402 933 -698 309 -310 524 -601 720 -976 223
-428 363 -885 426 -1395 25 -205 25 -686 -1 -890 -79 -642 -279 -1195 -623
-1724 -243 -373 -577 -733 -928 -997 -507 -383 -1087 -639 -1698 -748 -264
-48 -358 -55 -707 -55 -349 0 -443 7 -707 55 -704 126 -1374 450 -1913 925
-392 344 -698 739 -931 1199 -219 435 -345 849 -406 1345 -25 204 -25 686 0
890 60 483 178 886 382 1305 358 734 934 1340 1653 1738 l141 79 -204 409
c-113 225 -206 409 -208 409 -1 0 -51 -27 -112 -58z"/>
</g>
</svg>
