<svg width="55" height="56" viewBox="0 0 55 56" fill="none" xmlns="http://www.w3.org/2000/svg">
<g filter="url(#filter0_d)">
<g filter="url(#filter1_d)">
<circle cx="27.5" cy="23.5" r="23.5" fill="#3B1099"/>
</g>
<path d="M37 19L27.4501 24.2693L18 19V30.7307L27.4501 36L28.8465 35.237L28.7467 27.3689L33.21 25.0084L33.3097 32.7812L36.9751 30.7546L37 19ZM26.5026 32.3282L18.8478 28.2749V23.5063L26.5026 27.5596V32.3282Z" fill="white"/>
<path d="M28.839 22.6404L27.3949 23.4262L27.3687 25.3663V25.4645C27.3687 25.8329 27.6837 25.9557 28.0776 25.7347L28.1301 25.7101C28.5239 25.4891 28.8127 25.0471 28.8127 24.6787V24.4822L28.839 22.6404Z" fill="#1F0B4D"/>
<path d="M31.7009 21.0687L30.2569 21.8546L30.2043 23.8192V23.942C30.2043 24.3104 30.5194 24.4332 30.9132 24.2121L30.9658 24.1876C31.3596 23.9666 31.6484 23.4508 31.6484 23.0825V22.8615L31.7009 21.0687Z" fill="#1F0B4D"/>
<path d="M30.2829 21.8546L28.8389 22.6405L28.7864 24.6051V24.7525C28.7864 25.1208 29.1014 25.2436 29.4953 25.0226L29.5478 24.998C29.9416 24.777 30.2042 24.3104 30.2042 23.942V23.8193L30.2829 21.8546Z" fill="white"/>
<path d="M34.589 19.4971L33.1187 20.2829L33.0662 22.2476H33.0924V22.3458C33.0924 22.7142 33.4337 22.8615 33.8276 22.6405L33.8801 22.6159C34.2739 22.3949 34.5627 21.9037 34.5627 21.5354V21.0933L34.589 19.4971Z" fill="#1F0B4D"/>
<path d="M31.7008 20.0934L33.1449 20.283V21.781V22.3458C33.1449 22.7142 32.8561 23.1808 32.4622 23.4018L32.4097 23.4264C31.9896 23.6474 31.6746 23.5246 31.6746 23.1563L31.7008 20.0934Z" fill="white"/>
<path d="M37.4509 17.9253L36.0069 18.7111L35.9806 19.8899L35.9543 20.4793V20.7249V20.774C35.9543 21.1424 36.2694 21.2652 36.6632 21.0442L36.7158 21.0196C37.1096 20.7986 37.3984 20.3074 37.3984 19.939V19.8899L37.4509 17.9253Z" fill="#1F0B4D"/>
<path d="M36.033 18.7112L34.5889 19.497L34.5364 21.4617V21.5599C34.5364 21.9283 34.8514 22.0511 35.2715 21.83L35.324 21.8055C35.7179 21.5845 35.9804 21.1179 35.9804 20.7495V20.6513L36.033 18.7112Z" fill="white"/>
<path d="M38.895 17.1395L37.4509 17.8763L37.3984 19.8409V19.9883C37.3984 20.3566 37.7135 20.4794 38.1336 20.2584L38.1861 20.2338C38.5799 20.0128 38.8688 19.4725 38.8688 19.1042V18.5393L38.895 17.1395Z" fill="white"/>
<path d="M18.9405 20.7987L17.4965 19.9883L17.4702 18.0482L18.888 18.8095L18.9405 20.7987Z" fill="white"/>
<path d="M27.4214 25.391L27.3951 23.3773L25.9773 22.5914L26.0298 24.507V24.7034C26.0298 25.0718 26.2924 25.5138 26.6862 25.7349L26.7387 25.7594C27.1325 25.9804 27.4476 25.8576 27.4476 25.4893V25.391H27.4214Z" fill="white"/>
<path d="M24.6119 23.8438L24.5594 21.8546L23.1416 21.1425L23.1941 22.9106V23.1317C23.1941 23.5 23.4567 23.9912 23.8505 24.2122L23.903 24.2368C24.2969 24.4578 24.6119 24.335 24.6119 23.9666V23.8438Z" fill="white"/>
<path d="M26.0296 24.6051L26.0034 24.0158L25.9771 22.5914L24.5593 21.8055L24.6118 23.8439V23.9666C24.6118 24.335 24.8744 24.8016 25.2682 24.9981L25.3207 25.0226C25.7146 25.2437 26.0296 25.1209 26.0296 24.7525V24.6051Z" fill="#1F0B4D"/>
<path d="M21.7761 22.1984L21.7236 20.2829L20.2795 19.4971L20.3321 21.1425V21.5599C20.3321 21.9283 20.5946 22.4195 20.9884 22.6405L21.041 22.665C21.4348 22.8861 21.7499 22.7387 21.7499 22.3704L21.7761 22.1984Z" fill="white"/>
<path d="M23.1678 21.0688L21.75 20.283L21.7763 21.8547V22.3949C21.7763 22.7633 22.0388 23.2299 22.4326 23.4264L22.4852 23.4509C22.879 23.672 23.1941 23.5492 23.1941 23.1808V23.0826L23.1678 21.0688Z" fill="#1F0B4D"/>
<path d="M17.4966 19.3743L17.5228 20.0128C17.5228 20.3811 17.7854 20.8723 18.1792 21.0933L18.2317 21.1179C18.6256 21.3389 18.9406 21.2161 18.9406 20.8477L18.9144 19.9882" fill="white"/>
<path d="M20.3585 21.4371L20.306 19.5216L18.8882 18.7357L18.9407 20.332V20.8231C18.9407 21.1915 19.177 21.6581 19.5971 21.8546L19.6496 21.8791C20.0434 22.1002 20.3585 21.9774 20.3585 21.609V21.4371Z" fill="#1F0B4D"/>
<path d="M17.5228 19.9391L17.4703 18.0236L16.0525 17.2869L16.0787 18.6867V19.2269C16.0787 19.5953 16.3676 20.111 16.7614 20.3321L16.7877 20.3566C17.1815 20.5776 17.5228 20.4548 17.5228 20.0865V19.9391Z" fill="#1F0B4D"/>
<path d="M28.839 22.6405L27.395 23.4263L16.0525 17.2868L17.4966 16.501L28.839 22.6405Z" fill="#1F0B4D"/>
<path d="M30.2831 21.8547L28.839 22.6406L17.4966 16.5011L18.9406 15.7152L30.2831 21.8547Z" fill="white"/>
<path d="M31.701 21.0688L30.2831 21.8547L18.9407 15.7152L20.3585 14.9293L31.701 21.0688Z" fill="#1F0B4D"/>
<path d="M33.1449 20.2829L31.7009 21.0688L20.3584 14.9293L21.8025 14.1434L33.1449 20.2829Z" fill="white"/>
<path d="M34.589 19.497L33.145 20.2829L21.8025 14.1434L23.2466 13.3575L34.589 19.497Z" fill="#1F0B4D"/>
<path d="M36.0331 18.7111L34.5891 19.497L23.2466 13.3575L24.6906 12.5717L36.0331 18.7111Z" fill="white"/>
<path d="M37.451 17.9253L36.0331 18.7111L24.6907 12.5716L26.1085 11.7858L37.451 17.9253Z" fill="#1F0B4D"/>
<path d="M38.8949 17.1395L37.4509 17.9253L26.1084 11.7859L27.5525 11L38.8949 17.1395Z" fill="white"/>
</g>
<defs>
<filter id="filter0_d" x="0" y="0" width="55" height="55" filterUnits="userSpaceOnUse" color-interpolation-filters="sRGB">
<feFlood flood-opacity="0" result="BackgroundImageFix"/>
<feColorMatrix in="SourceAlpha" type="matrix" values="0 0 0 0 0 0 0 0 0 0 0 0 0 0 0 0 0 0 127 0"/>
<feOffset dy="4"/>
<feGaussianBlur stdDeviation="2"/>
<feColorMatrix type="matrix" values="0 0 0 0 0 0 0 0 0 0 0 0 0 0 0 0 0 0 0.25 0"/>
<feBlend mode="normal" in2="BackgroundImageFix" result="effect1_dropShadow"/>
<feBlend mode="normal" in="SourceGraphic" in2="effect1_dropShadow" result="shape"/>
</filter>
<filter id="filter1_d" x="1" y="0" width="53" height="56" filterUnits="userSpaceOnUse" color-interpolation-filters="sRGB">
<feFlood flood-opacity="0" result="BackgroundImageFix"/>
<feColorMatrix in="SourceAlpha" type="matrix" values="0 0 0 0 0 0 0 0 0 0 0 0 0 0 0 0 0 0 127 0"/>
<feOffset dy="6"/>
<feGaussianBlur stdDeviation="1.5"/>
<feColorMatrix type="matrix" values="0 0 0 0 0 0 0 0 0 0 0 0 0 0 0 0 0 0 0.1 0"/>
<feBlend mode="normal" in2="BackgroundImageFix" result="effect1_dropShadow"/>
<feBlend mode="normal" in="SourceGraphic" in2="effect1_dropShadow" result="shape"/>
</filter>
</defs>
</svg>
