<svg width="53" height="61" viewBox="0 0 53 61" fill="none" xmlns="http://www.w3.org/2000/svg">
<g filter="url(#filter0_d)">
<circle cx="26.5" cy="23.5" r="23.5" fill="#3B1099"/>
</g>
<path d="M36 19L26.4501 24.2693L17 19V30.7307L26.4501 36L27.8465 35.237L27.7467 27.3689L32.21 25.0084L32.3097 32.7812L35.9751 30.7546L36 19ZM25.5026 32.3282L17.8478 28.2749V23.5063L25.5026 27.5596V32.3282Z" fill="white"/>
<path d="M27.839 22.6404L26.3949 23.4262L26.3687 25.3663V25.4645C26.3687 25.8329 26.6837 25.9557 27.0776 25.7347L27.1301 25.7101C27.5239 25.4891 27.8127 25.0471 27.8127 24.6787V24.4822L27.839 22.6404Z" fill="#1F0B4D"/>
<path d="M30.7009 21.0687L29.2569 21.8546L29.2043 23.8192V23.942C29.2043 24.3104 29.5194 24.4332 29.9132 24.2121L29.9658 24.1876C30.3596 23.9666 30.6484 23.4508 30.6484 23.0825V22.8615L30.7009 21.0687Z" fill="#1F0B4D"/>
<path d="M29.2829 21.8546L27.8389 22.6405L27.7864 24.6051V24.7525C27.7864 25.1208 28.1014 25.2436 28.4953 25.0226L28.5478 24.998C28.9416 24.777 29.2042 24.3104 29.2042 23.942V23.8193L29.2829 21.8546Z" fill="white"/>
<path d="M33.589 19.4971L32.1187 20.2829L32.0662 22.2476H32.0924V22.3458C32.0924 22.7142 32.4337 22.8615 32.8276 22.6405L32.8801 22.6159C33.2739 22.3949 33.5627 21.9037 33.5627 21.5354V21.0933L33.589 19.4971Z" fill="#1F0B4D"/>
<path d="M30.7008 20.0934L32.1449 20.283V21.781V22.3458C32.1449 22.7142 31.8561 23.1808 31.4622 23.4018L31.4097 23.4264C30.9896 23.6474 30.6746 23.5246 30.6746 23.1563L30.7008 20.0934Z" fill="white"/>
<path d="M36.4509 17.9253L35.0069 18.7111L34.9806 19.8899L34.9543 20.4793V20.7249V20.774C34.9543 21.1424 35.2694 21.2652 35.6632 21.0442L35.7158 21.0196C36.1096 20.7986 36.3984 20.3074 36.3984 19.939V19.8899L36.4509 17.9253Z" fill="#1F0B4D"/>
<path d="M35.033 18.7112L33.5889 19.497L33.5364 21.4617V21.5599C33.5364 21.9283 33.8514 22.0511 34.2715 21.83L34.324 21.8055C34.7179 21.5845 34.9804 21.1179 34.9804 20.7495V20.6513L35.033 18.7112Z" fill="white"/>
<path d="M37.895 17.1395L36.4509 17.8763L36.3984 19.8409V19.9883C36.3984 20.3566 36.7135 20.4794 37.1336 20.2584L37.1861 20.2338C37.5799 20.0128 37.8688 19.4725 37.8688 19.1042V18.5393L37.895 17.1395Z" fill="white"/>
<path d="M17.9405 20.7987L16.4965 19.9883L16.4702 18.0482L17.888 18.8095L17.9405 20.7987Z" fill="white"/>
<path d="M26.4214 25.391L26.3951 23.3773L24.9773 22.5914L25.0298 24.507V24.7034C25.0298 25.0718 25.2924 25.5138 25.6862 25.7349L25.7387 25.7594C26.1325 25.9804 26.4476 25.8576 26.4476 25.4893V25.391H26.4214Z" fill="white"/>
<path d="M23.6119 23.8438L23.5594 21.8546L22.1416 21.1425L22.1941 22.9106V23.1317C22.1941 23.5 22.4567 23.9912 22.8505 24.2122L22.903 24.2368C23.2969 24.4578 23.6119 24.335 23.6119 23.9666V23.8438Z" fill="white"/>
<path d="M25.0296 24.6051L25.0034 24.0158L24.9771 22.5914L23.5593 21.8055L23.6118 23.8439V23.9666C23.6118 24.335 23.8744 24.8016 24.2682 24.9981L24.3207 25.0226C24.7146 25.2437 25.0296 25.1209 25.0296 24.7525V24.6051Z" fill="#1F0B4D"/>
<path d="M20.7761 22.1984L20.7236 20.2829L19.2795 19.4971L19.3321 21.1425V21.5599C19.3321 21.9283 19.5946 22.4195 19.9884 22.6405L20.041 22.665C20.4348 22.8861 20.7499 22.7387 20.7499 22.3704L20.7761 22.1984Z" fill="white"/>
<path d="M22.1678 21.0688L20.75 20.283L20.7763 21.8547V22.3949C20.7763 22.7633 21.0388 23.2299 21.4326 23.4264L21.4852 23.4509C21.879 23.672 22.1941 23.5492 22.1941 23.1808V23.0826L22.1678 21.0688Z" fill="#1F0B4D"/>
<path d="M16.4966 19.3743L16.5228 20.0128C16.5228 20.3811 16.7854 20.8723 17.1792 21.0933L17.2317 21.1179C17.6256 21.3389 17.9406 21.2161 17.9406 20.8477L17.9144 19.9882" fill="white"/>
<path d="M19.3585 21.4371L19.306 19.5216L17.8882 18.7357L17.9407 20.332V20.8231C17.9407 21.1915 18.177 21.6581 18.5971 21.8546L18.6496 21.8791C19.0434 22.1002 19.3585 21.9774 19.3585 21.609V21.4371Z" fill="#1F0B4D"/>
<path d="M16.5228 19.9391L16.4703 18.0236L15.0525 17.2869L15.0787 18.6867V19.2269C15.0787 19.5953 15.3676 20.111 15.7614 20.3321L15.7877 20.3566C16.1815 20.5776 16.5228 20.4548 16.5228 20.0865V19.9391Z" fill="#1F0B4D"/>
<path d="M27.839 22.6405L26.395 23.4263L15.0525 17.2868L16.4966 16.501L27.839 22.6405Z" fill="#1F0B4D"/>
<path d="M29.2831 21.8547L27.839 22.6406L16.4966 16.5011L17.9406 15.7152L29.2831 21.8547Z" fill="white"/>
<path d="M30.701 21.0688L29.2831 21.8547L17.9407 15.7152L19.3585 14.9293L30.701 21.0688Z" fill="#1F0B4D"/>
<path d="M32.1449 20.2829L30.7009 21.0688L19.3584 14.9293L20.8025 14.1434L32.1449 20.2829Z" fill="white"/>
<path d="M33.589 19.497L32.145 20.2829L20.8025 14.1434L22.2466 13.3575L33.589 19.497Z" fill="#1F0B4D"/>
<path d="M35.0331 18.7111L33.5891 19.497L22.2466 13.3575L23.6906 12.5717L35.0331 18.7111Z" fill="white"/>
<path d="M36.451 17.9253L35.0331 18.7111L23.6907 12.5716L25.1085 11.7858L36.451 17.9253Z" fill="#1F0B4D"/>
<path d="M37.8949 17.1395L36.4509 17.9253L25.1084 11.7859L26.5525 11L37.8949 17.1395Z" fill="white"/>
<defs>
<filter id="filter0_d" x="0" y="0" width="53" height="61" filterUnits="userSpaceOnUse" color-interpolation-filters="sRGB">
<feFlood flood-opacity="0" result="BackgroundImageFix"/>
<feColorMatrix in="SourceAlpha" type="matrix" values="0 0 0 0 0 0 0 0 0 0 0 0 0 0 0 0 0 0 127 0"/>
<feOffset dy="11"/>
<feGaussianBlur stdDeviation="1.5"/>
<feColorMatrix type="matrix" values="0 0 0 0 0 0 0 0 0 0 0 0 0 0 0 0 0 0 0.25 0"/>
<feBlend mode="normal" in2="BackgroundImageFix" result="effect1_dropShadow"/>
<feBlend mode="normal" in="SourceGraphic" in2="effect1_dropShadow" result="shape"/>
</filter>
</defs>
</svg>
