<svg width="13" height="16" viewBox="0 0 13 16" fill="none" xmlns="http://www.w3.org/2000/svg">
<path d="M12.8088 2.18182C12.6176 1.63636 12.2353 1.09091 11.4706 0.545455C10.8971 0.181818 10.3235 0 9.55882 0C8.79412 0 8.22059 0.363636 7.83823 0.909091L0.955882 10.3636C0.573529 10.5455 0.382353 11.0909 0.191176 13.2727C0 14.3636 0 15.4545 0 15.4545C0 15.4545 0 15.4545 0 15.6364C0 16 0.382353 16.1818 0.573529 16C0.573529 16 0.573529 16 0.764706 16C0.764706 16 1.72059 15.6364 2.86765 15.0909C4.97059 14.1818 5.35294 13.8182 5.54412 13.4545L12.6176 4C13 3.45455 13 2.90909 12.8088 2.18182ZM10.8971 1.45455C11.2794 1.81818 11.6618 2.18182 11.6618 2.54545C11.8529 2.90909 11.6618 3.27273 11.6618 3.45455C11.4706 3.63636 11.2794 3.81818 10.8971 3.81818C10.3235 3.81818 9.94118 3.63636 9.55882 3.27273C8.79412 2.90909 8.41176 2 8.79412 1.45455C9.17647 0.909091 10.1324 0.909091 10.8971 1.45455ZM4.58824 12.9091C4.58824 12.9091 4.20588 13.2727 2.29412 14.1818C1.91176 14.3636 1.52941 14.5455 1.14706 14.7273C1.14706 14.3636 1.14706 14 1.33824 13.4545C1.52941 11.2727 1.72059 10.9091 1.72059 10.9091L7.64706 2.90909C7.83823 3.45455 8.22059 3.81818 8.79412 4.18182C9.36765 4.54545 9.94118 4.72727 10.5147 4.72727L4.58824 12.9091Z" fill="#5017B1"/>
</svg>
