<svg width="14" height="14" viewBox="0 0 14 14" fill="none" xmlns="http://www.w3.org/2000/svg">
<path d="M10.7298 12.5005L10.7173 12.4999L10.7047 12.5C10.6786 12.5001 10.6528 12.494 10.6294 12.4823L7.23199 10.7037L7.00009 10.5823L6.76818 10.7037L3.36818 12.4837L3.36738 12.4841C3.33977 12.4986 3.30866 12.5051 3.27756 12.5028L3.2408 13.0014L3.27756 12.5028C3.24646 12.5005 3.21663 12.4895 3.19145 12.4711L2.89637 12.8748L3.19145 12.4711C3.16628 12.4527 3.14677 12.4276 3.13515 12.3987C3.12353 12.3697 3.12026 12.3381 3.12571 12.3074L3.12571 12.3074L3.79238 8.55408L3.83879 8.29277L3.64838 8.1079L0.904995 5.44442C0.884418 5.42332 0.869798 5.39712 0.862642 5.3685C0.855681 5.34066 0.856035 5.31151 0.86363 5.28389C0.873574 5.25608 0.890742 5.23138 0.913404 5.21236C0.937265 5.19233 0.966265 5.17938 0.997114 5.175L0.9988 5.17476L4.7988 4.62142L5.05991 4.5834L5.17588 4.34639L6.84921 0.926386L6.84921 0.926388L6.85009 0.924584C6.86373 0.896405 6.88504 0.872641 6.91157 0.856013C6.9381 0.839386 6.96878 0.830566 7.00009 0.830566C7.0314 0.830566 7.06207 0.839386 7.0886 0.856013C7.11513 0.872642 7.13644 0.896406 7.15009 0.924584L7.15007 0.924594L7.15217 0.928846L8.84551 4.34218L8.96199 4.57699L9.22137 4.61475L13.0214 5.16809L13.0231 5.16833C13.0539 5.17272 13.0829 5.18566 13.1068 5.20569L13.4283 4.82275L13.1068 5.20569C13.1294 5.22472 13.1466 5.24941 13.1565 5.27722C13.1641 5.30484 13.1645 5.33399 13.1575 5.36183C13.1504 5.39045 13.1358 5.41664 13.1152 5.43775L10.3718 8.10123L10.1814 8.2861L10.2278 8.54741L10.8945 12.3007L10.8944 12.3008L10.8956 12.3068C10.9015 12.3381 10.8984 12.3704 10.8866 12.3999C10.8751 12.4286 10.8559 12.4536 10.831 12.472C10.8013 12.4921 10.7658 12.5022 10.7298 12.5005Z" stroke="#FEB42B"/>
</svg>
