<svg width="14" height="14" viewBox="0 0 14 14" fill="none" xmlns="http://www.w3.org/2000/svg">
<path d="M10.7068 13C10.6001 13.0004 10.495 12.9753 10.4001 12.9266L7.00009 11.1466L3.60009 12.9266C3.48968 12.9847 3.3652 13.0106 3.2408 13.0014C3.1164 12.9923 2.99707 12.9484 2.89637 12.8748C2.79567 12.8012 2.71765 12.7008 2.67116 12.585C2.62468 12.4693 2.6116 12.3428 2.63342 12.22L3.30009 8.46664L0.553419 5.79997C0.467724 5.71446 0.406934 5.60722 0.377571 5.48977C0.348208 5.37232 0.351383 5.24909 0.386753 5.13331C0.425392 5.01482 0.49647 4.90954 0.591919 4.82941C0.687369 4.74928 0.803368 4.69751 0.926753 4.67997L4.72675 4.12664L6.40009 0.70664C6.45468 0.593926 6.53991 0.498868 6.64603 0.432356C6.75214 0.365843 6.87485 0.330566 7.00009 0.330566C7.12532 0.330566 7.24803 0.365843 7.35415 0.432356C7.46026 0.498868 7.5455 0.593926 7.60009 0.70664L9.29342 4.11997L13.0934 4.67331C13.2168 4.69084 13.3328 4.74262 13.4283 4.82275C13.5237 4.90288 13.5948 5.00816 13.6334 5.12664C13.6688 5.24242 13.672 5.36565 13.6426 5.4831C13.6132 5.60055 13.5524 5.70779 13.4668 5.79331L10.7201 8.45997L11.3868 12.2133C11.4106 12.3383 11.3981 12.4675 11.3508 12.5856C11.3036 12.7037 11.2235 12.8059 11.1201 12.88C10.9994 12.9646 10.854 13.0068 10.7068 13Z" fill="#FEB42B"/>
</svg>
