<svg width="11" height="13" viewBox="0 0 11 13" fill="none" xmlns="http://www.w3.org/2000/svg">
<path d="M1.7998 11.7997V3.37012H8.59982V11.7997H1.7998Z" stroke="#D00505"/>
<mask id="path-2-inside-1" fill="white">
<path d="M9.96666 1.63997H7.32333C7.10666 0.696989 6.24 0 5.2 0C4.16 0 3.29333 0.696989 3.07666 1.63997H0.433333C0.173333 1.63997 0 1.80397 0 2.04997C0 2.29596 0.173333 2.45996 0.433333 2.45996H3.46666H6.93333H9.96666C10.2267 2.45996 10.4 2.29596 10.4 2.04997C10.4 1.80397 10.2267 1.63997 9.96666 1.63997ZM3.98666 1.63997C4.16 1.14798 4.63666 0.819987 5.2 0.819987C5.76333 0.819987 6.24 1.14798 6.41333 1.63997H3.98666Z"/>
</mask>
<path d="M7.32333 1.63997L6.34872 1.86391L6.52704 2.63997H7.32333V1.63997ZM3.07666 1.63997V2.63997H3.87295L4.05127 1.86391L3.07666 1.63997ZM3.98666 1.63997L3.04349 1.30768L2.57411 2.63997H3.98666V1.63997ZM6.41333 1.63997V2.63997H7.82588L7.35651 1.30768L6.41333 1.63997ZM9.96666 0.639974H7.32333V2.63997H9.96666V0.639974ZM8.29793 1.41604C7.97347 0.0039181 6.69048 -1 5.2 -1V1C5.78951 1 6.23985 1.39006 6.34872 1.86391L8.29793 1.41604ZM5.2 -1C3.70951 -1 2.42652 0.00391799 2.10206 1.41604L4.05127 1.86391C4.16014 1.39006 4.61048 1 5.2 1V-1ZM3.07666 0.639974H0.433333V2.63997H3.07666V0.639974ZM0.433333 0.639974C0.092146 0.639974 -0.276619 0.750536 -0.568107 1.02632C-0.864595 1.30684 -1 1.68251 -1 2.04997H1C1 2.17143 0.951262 2.3421 0.806441 2.47912C0.666619 2.61141 0.51452 2.63997 0.433333 2.63997V0.639974ZM-1 2.04997C-1 2.41743 -0.864595 2.79309 -0.568107 3.07361C-0.276619 3.3494 0.092146 3.45996 0.433333 3.45996V1.45996C0.51452 1.45996 0.666619 1.48852 0.806441 1.62081C0.951262 1.75784 1 1.9285 1 2.04997H-1ZM0.433333 3.45996H3.46666V1.45996H0.433333V3.45996ZM3.46666 3.45996H6.93333V1.45996H3.46666V3.45996ZM6.93333 3.45996H9.96666V1.45996H6.93333V3.45996ZM9.96666 3.45996C10.3078 3.45996 10.6766 3.3494 10.9681 3.07361C11.2646 2.79309 11.4 2.41743 11.4 2.04997H9.39999C9.39999 1.9285 9.44873 1.75784 9.59355 1.62081C9.73337 1.48852 9.88547 1.45996 9.96666 1.45996V3.45996ZM11.4 2.04997C11.4 1.68251 11.2646 1.30684 10.9681 1.02632C10.6766 0.750536 10.3078 0.639974 9.96666 0.639974V2.63997C9.88547 2.63997 9.73337 2.61141 9.59355 2.47912C9.44873 2.3421 9.39999 2.17143 9.39999 2.04997H11.4ZM4.92984 1.97226C4.95186 1.90976 5.02881 1.81999 5.2 1.81999V-0.180013C4.24451 -0.180013 3.36813 0.386202 3.04349 1.30768L4.92984 1.97226ZM5.2 1.81999C5.37118 1.81999 5.44813 1.90976 5.47015 1.97226L7.35651 1.30768C7.03186 0.386202 6.15548 -0.180013 5.2 -0.180013V1.81999ZM6.41333 0.639974H3.98666V2.63997H6.41333V0.639974Z" fill="#D00505" mask="url(#path-2-inside-1)"/>
</svg>
