<svg width="15" height="19" viewBox="0 0 15 19" fill="none" xmlns="http://www.w3.org/2000/svg">
<path d="M14.7794 2.59091C14.5588 1.94318 14.1176 1.29545 13.2353 0.647727C12.5735 0.215909 11.9118 0 11.0294 0C10.1471 0 9.48529 0.431818 9.04412 1.07955L1.10294 12.3068C0.661765 12.5227 0.441176 13.1705 0.220588 15.7614C0 17.0568 0 18.3523 0 18.3523C0 18.3523 0 18.3523 0 18.5682C0 19 0.441176 19.2159 0.661765 19C0.661765 19 0.661765 19 0.882353 19C0.882353 19 1.98529 18.5682 3.30882 17.9205C5.73529 16.8409 6.17647 16.4091 6.39706 15.9773L14.5588 4.75C15 4.10227 15 3.45455 14.7794 2.59091ZM12.5735 1.72727C13.0147 2.15909 13.4559 2.59091 13.4559 3.02273C13.6765 3.45455 13.4559 3.88636 13.4559 4.10227C13.2353 4.31818 13.0147 4.53409 12.5735 4.53409C11.9118 4.53409 11.4706 4.31818 11.0294 3.88636C10.1471 3.45455 9.70588 2.375 10.1471 1.72727C10.5882 1.07955 11.6912 1.07955 12.5735 1.72727ZM5.29412 15.3295C5.29412 15.3295 4.85294 15.7614 2.64706 16.8409C2.20588 17.0568 1.76471 17.2727 1.32353 17.4886C1.32353 17.0568 1.32353 16.625 1.54412 15.9773C1.76471 13.3864 1.98529 12.9545 1.98529 12.9545L8.82353 3.45455C9.04412 4.10227 9.48529 4.53409 10.1471 4.96591C10.8088 5.39773 11.4706 5.61364 12.1324 5.61364L5.29412 15.3295Z" fill="#6E6E6E"/>
</svg>
