<svg width="25" height="22" viewBox="0 0 25 22" fill="none" xmlns="http://www.w3.org/2000/svg">
<path d="M11.924 3.0242L12.5 3.71483L13.076 3.0242C14.2494 1.61722 15.9604 0.75 17.8333 0.75C21.3738 0.75 24.25 3.69508 24.25 7.32402C24.25 11.5578 21.3544 15.0339 18.2789 17.5168C16.7576 18.745 15.2322 19.6972 14.0853 20.3427C13.5127 20.6649 13.0366 20.9095 12.7055 21.0728C12.629 21.1104 12.5603 21.1438 12.5 21.1727C12.4397 21.1438 12.371 21.1104 12.2945 21.0728C11.9634 20.9095 11.4873 20.6649 10.9147 20.3427C9.76781 19.6972 8.24244 18.745 6.72112 17.5168C3.64562 15.0339 0.75 11.5578 0.75 7.32402C0.75 3.69316 3.62804 0.75 7.13889 0.75C9.04124 0.75 10.7517 1.61853 11.924 3.0242Z" stroke="#FF4583" stroke-width="1.5"/>
</svg>
