<svg width="27" height="26" viewBox="0 0 27 26" fill="none" xmlns="http://www.w3.org/2000/svg">
<path d="M20.6817 25.125C20.4752 25.1258 20.2714 25.0771 20.0876 24.9829L13.5001 21.5341L6.91256 24.9829C6.69865 25.0954 6.45748 25.1456 6.21645 25.1278C5.97542 25.1101 5.74422 25.025 5.54911 24.8824C5.35401 24.7398 5.20283 24.5453 5.11277 24.321C5.02271 24.0967 4.99737 23.8517 5.03964 23.6137L6.33131 16.3416L1.00964 11.175C0.843609 11.0093 0.725827 10.8015 0.668937 10.574C0.612047 10.3464 0.618197 10.1076 0.686726 9.88331C0.761591 9.65375 0.899304 9.44977 1.08424 9.29452C1.26917 9.13926 1.49392 9.03896 1.73298 9.00498L9.09548 7.93289L12.3376 1.30665C12.4433 1.08826 12.6085 0.904087 12.8141 0.775219C13.0197 0.646352 13.2574 0.578003 13.5001 0.578003C13.7427 0.578003 13.9804 0.646352 14.186 0.775219C14.3916 0.904087 14.5568 1.08826 14.6626 1.30665L17.9434 7.91998L25.3059 8.99206C25.545 9.02604 25.7697 9.12635 25.9546 9.2816C26.1396 9.43685 26.2773 9.64083 26.3521 9.87039C26.4207 10.0947 26.4268 10.3335 26.3699 10.561C26.313 10.7886 26.1953 10.9964 26.0292 11.1621L20.7076 16.3287L21.9992 23.6008C22.0453 23.843 22.0212 24.0933 21.9296 24.3221C21.8381 24.551 21.683 24.7489 21.4826 24.8925C21.2487 25.0564 20.967 25.1381 20.6817 25.125Z" fill="#FEB42B"/>
</svg>
