<svg width="42" height="13" viewBox="0 0 42 13" fill="none" xmlns="http://www.w3.org/2000/svg">
<path d="M42.0002 12.7969C41.6455 12.7969 41.3617 12.7969 41.007 12.7969C40.3685 12.7969 39.659 12.7969 39.0205 12.7969C38.8786 12.7969 38.8786 12.7292 38.8076 12.6615C38.6658 12.1198 38.5948 11.5781 38.4529 11.0365C38.4529 10.901 38.382 10.901 38.2401 10.901C36.8921 10.901 35.5441 10.901 34.1962 10.901C34.0543 10.901 34.0543 10.9687 33.9833 11.0365C33.7705 11.5781 33.5576 12.1198 33.3448 12.6615C33.3448 12.7292 33.2739 12.7969 33.2029 12.7969C32.0678 12.7969 30.9326 12.7969 29.7975 12.7969C29.7975 12.7969 29.7975 12.7969 29.7266 12.7969C29.7266 12.7292 29.7266 12.6615 29.7975 12.5938C31.4293 8.86979 33.132 5.07812 34.7637 1.35417C35.1185 0.609375 35.6151 0.270833 36.4664 0.203125C37.3178 0.203125 38.2401 0.203125 39.0914 0.203125C39.1624 0.203125 39.2333 0.270833 39.2333 0.338542C39.588 1.89583 39.9428 3.52083 40.2975 5.07812C40.8651 7.58333 41.3617 10.0885 41.9293 12.6615V12.7292C42.0002 12.7292 42.0002 12.7969 42.0002 12.7969ZM36.8921 3.65625C36.8921 3.65625 36.8212 3.72396 36.8921 3.65625C36.2536 5.21354 35.686 6.70312 35.1185 8.19271C35.0475 8.32812 35.1185 8.32812 35.2603 8.32812C36.1117 8.32812 36.963 8.32812 37.7435 8.32812C37.8853 8.32812 37.8853 8.26042 37.8853 8.19271C37.7435 7.58333 37.6016 6.90625 37.4597 6.29688C37.2468 5.41667 37.1049 4.53646 36.8921 3.65625Z" fill="white"/>
<path d="M28.1656 0C28.3785 0.0677083 28.5913 0.0677083 28.8041 0.0677083C29.3717 0.135417 29.9393 0.270833 30.4359 0.473958C30.5068 0.541667 30.5778 0.541667 30.5068 0.677083C30.3649 1.48958 30.223 2.36979 30.0812 3.18229C30.0812 3.31771 30.0102 3.25 29.9393 3.25C29.5136 3.04688 29.017 2.91146 28.5203 2.77604C27.7399 2.64062 26.9595 2.57292 26.2501 2.77604C25.9663 2.84375 25.7535 2.97917 25.5406 3.18229C25.1859 3.52083 25.1859 3.99479 25.5406 4.33333C25.8244 4.60417 26.1082 4.80729 26.4629 4.94271C27.0305 5.21354 27.598 5.48438 28.1656 5.82292C28.8751 6.22917 29.5136 6.77083 29.7974 7.51562C30.223 8.46354 30.0812 9.41146 29.6555 10.3594C29.1589 11.375 28.3075 12.0521 27.2433 12.4583C26.2501 12.8646 25.1859 13 24.1217 13C23.0575 13 21.9224 12.8646 20.8582 12.526C20.7163 12.4583 20.5744 12.3906 20.3616 12.3906C20.2906 12.3906 20.2197 12.3229 20.2906 12.1875C20.3616 11.5781 20.5035 10.9688 20.5744 10.3594C20.6453 10.0885 20.6453 9.88542 20.7163 9.61458C20.7163 9.47917 20.7872 9.47917 20.9291 9.54688C21.5676 9.81771 22.2771 10.1562 22.9866 10.224C23.767 10.3594 24.5474 10.4271 25.3278 10.224C25.6116 10.1562 25.8953 10.0208 26.1082 9.81771C26.5339 9.41146 26.6048 8.86979 26.1791 8.46354C25.8953 8.125 25.5406 7.92188 25.1149 7.78646C24.5474 7.51562 23.9798 7.24479 23.4832 6.90625C22.9866 6.56771 22.5609 6.22917 22.2062 5.75521C21.5676 4.80729 21.5676 3.79167 21.9933 2.84375C22.419 1.82812 23.1994 1.15104 24.1926 0.677083C24.973 0.338542 25.8244 0.135417 26.6757 0.0677083H26.7467C27.2433 0 27.7399 0 28.1656 0Z" fill="white"/>
<path d="M8.2298 6.97394C8.37169 7.5156 8.44263 8.12498 8.58453 8.66665C8.58453 8.66665 8.58452 8.73435 8.65547 8.73435C8.72642 8.59894 8.72642 8.46352 8.79736 8.39581C9.86155 5.75519 10.8548 3.04685 11.919 0.40623C11.919 0.338521 11.9899 0.270813 12.0609 0.270813C13.196 0.270813 14.4021 0.270813 15.5372 0.270813C15.5372 0.338521 15.5372 0.338521 15.5372 0.40623C13.7636 4.46873 12.0609 8.59894 10.2872 12.6614C10.2163 12.7291 10.2163 12.7969 10.0744 12.7969C8.93925 12.7969 7.87507 12.7969 6.73993 12.7969C6.59804 12.7969 6.59804 12.7291 6.59804 12.6614C5.6048 9.1406 4.61155 5.61977 3.61831 2.09894C3.61831 2.03123 3.61831 1.96352 3.54736 1.89581C3.61831 1.89581 3.68926 1.89581 3.68926 1.96352C5.25007 2.84373 6.52709 4.06248 7.44939 5.55206C7.73317 5.95831 7.94601 6.43227 8.15885 6.90623C8.22979 6.90623 8.2298 6.90623 8.2298 6.97394Z" fill="white"/>
<path d="M16.5303 12.7969C16.0337 12.7969 15.4662 12.7969 14.9695 12.7969C14.8276 12.7969 14.8276 12.7969 14.8276 12.6615C15.2533 10.0885 15.679 7.58333 16.1047 5.01042C16.3884 3.45312 16.6013 1.89583 16.8851 0.338542C16.8851 0.203125 16.956 0.203125 17.027 0.203125C18.0912 0.203125 19.0844 0.203125 20.1486 0.203125C20.2905 0.203125 20.2905 0.270833 20.2905 0.338542C20.1486 1.35417 19.9357 2.30208 19.7939 3.31771C19.581 4.67188 19.3682 5.95833 19.1553 7.3125C18.9425 8.66667 18.7297 9.95313 18.4459 11.3073C18.3749 11.7813 18.304 12.2552 18.233 12.7292C18.233 12.7969 18.1621 12.8646 18.0912 12.8646C17.5236 12.7969 17.027 12.7969 16.5303 12.7969Z" fill="white"/>
<path d="M8.22973 6.90625C8.01689 6.43229 7.80405 5.95833 7.52027 5.55208C6.59797 4.0625 5.32095 2.84375 3.76014 1.96354C3.68919 1.89583 3.61824 1.89583 3.5473 1.89583C3.5473 1.82813 3.47635 1.82813 3.40541 1.76042C2.34122 1.21875 1.27703 0.8125 0.141892 0.473958C0.0709459 0.541667 0 0.541667 0 0.40625C0 0.270833 0.0709459 0.203125 0.212838 0.203125C1.98649 0.203125 3.68919 0.203125 5.46284 0.203125C5.67568 0.203125 5.81757 0.203125 6.03041 0.270833C6.59797 0.40625 6.9527 0.744792 7.09459 1.35417C7.44932 3.18229 7.80405 4.94271 8.22973 6.77083C8.22973 6.77083 8.22973 6.83854 8.22973 6.90625Z" fill="white"/>
</svg>
